<svg id="visual" viewBox="0 0 960 540" width="960" height="540" xmlns="http://www.w3.org/2000/svg" xmlns:xlink="http://www.w3.org/1999/xlink" version="1.1"><rect x="0" y="0" width="960" height="540" fill="#050b13"></rect><path d="M0 360L22.8 362.2C45.7 364.3 91.3 368.7 137 362.7C182.7 356.7 228.3 340.3 274 333.3C319.7 326.3 365.3 328.7 411.2 338.2C457 347.7 503 364.3 548.8 372.7C594.7 381 640.3 381 686 378.7C731.7 376.3 777.3 371.7 823 368.7C868.7 365.7 914.3 364.3 937.2 363.7L960 363L960 541L937.2 541C914.3 541 868.7 541 823 541C777.3 541 731.7 541 686 541C640.3 541 594.7 541 548.8 541C503 541 457 541 411.2 541C365.3 541 319.7 541 274 541C228.3 541 182.7 541 137 541C91.3 541 45.7 541 22.8 541L0 541Z" fill="#1f324b"></path><path d="M0 397L22.8 397.7C45.7 398.3 91.3 399.7 137 393.3C182.7 387 228.3 373 274 366.8C319.7 360.7 365.3 362.3 411.2 371.2C457 380 503 396 548.8 402.5C594.7 409 640.3 406 686 399C731.7 392 777.3 381 823 376.2C868.7 371.3 914.3 372.7 937.2 373.3L960 374L960 541L937.2 541C914.3 541 868.7 541 823 541C777.3 541 731.7 541 686 541C640.3 541 594.7 541 548.8 541C503 541 457 541 411.2 541C365.3 541 319.7 541 274 541C228.3 541 182.7 541 137 541C91.3 541 45.7 541 22.8 541L0 541Z" fill="#394960"></path><path d="M0 415L22.8 415.7C45.7 416.3 91.3 417.7 137 416.8C182.7 416 228.3 413 274 417.2C319.7 421.3 365.3 432.7 411.2 440.8C457 449 503 454 548.8 456.5C594.7 459 640.3 459 686 454C731.7 449 777.3 439 823 437.2C868.7 435.3 914.3 441.7 937.2 444.8L960 448L960 541L937.2 541C914.3 541 868.7 541 823 541C777.3 541 731.7 541 686 541C640.3 541 594.7 541 548.8 541C503 541 457 541 411.2 541C365.3 541 319.7 541 274 541C228.3 541 182.7 541 137 541C91.3 541 45.7 541 22.8 541L0 541Z" fill="#536176"></path><path d="M0 488L22.8 481C45.7 474 91.3 460 137 456.7C182.7 453.3 228.3 460.7 274 460C319.7 459.3 365.3 450.7 411.2 447.5C457 444.3 503 446.7 548.8 447.2C594.7 447.7 640.3 446.3 686 443.7C731.7 441 777.3 437 823 441.5C868.7 446 914.3 459 937.2 465.5L960 472L960 541L937.2 541C914.3 541 868.7 541 823 541C777.3 541 731.7 541 686 541C640.3 541 594.7 541 548.8 541C503 541 457 541 411.2 541C365.3 541 319.7 541 274 541C228.3 541 182.7 541 137 541C91.3 541 45.7 541 22.8 541L0 541Z" fill="#6e7b8c"></path><path d="M0 489L22.8 488.5C45.7 488 91.3 487 137 490.3C182.7 493.7 228.3 501.3 274 500.5C319.7 499.7 365.3 490.3 411.2 489.7C457 489 503 497 548.8 501.5C594.7 506 640.3 507 686 506.8C731.7 506.7 777.3 505.3 823 504.5C868.7 503.7 914.3 503.3 937.2 503.2L960 503L960 541L937.2 541C914.3 541 868.7 541 823 541C777.3 541 731.7 541 686 541C640.3 541 594.7 541 548.8 541C503 541 457 541 411.2 541C365.3 541 319.7 541 274 541C228.3 541 182.7 541 137 541C91.3 541 45.7 541 22.8 541L0 541Z" fill="#8a95a3"></path></svg>