<?xml version="1.0" encoding="UTF-8"?>
<svg xmlns="http://www.w3.org/2000/svg" xmlns:xlink="http://www.w3.org/1999/xlink" viewBox="0 0 48 48" width="48px" height="48px">
<g id="surface75549930">
<path style=" stroke:none;fill-rule:nonzero;fill:rgb(13.333334%,13.333334%,13.333334%);fill-opacity:1;" d="M 6 10 C 6 7.789062 7.789062 6 10 6 L 38 6 C 40.210938 6 42 7.789062 42 10 L 42 38 C 42 40.210938 40.210938 42 38 42 L 10 42 C 7.789062 42 6 40.210938 6 38 Z M 6 10 "/>
<path style=" stroke:none;fill-rule:nonzero;fill:rgb(33.333334%,33.333334%,33.333334%);fill-opacity:1;" d="M 9 9 L 9 39 L 39 39 L 39 9 Z M 19.09375 21.695312 L 21.007812 16.8125 L 24.296875 16.8125 L 20.957031 23.863281 L 24.375 31.03125 L 21.046875 31.03125 L 19.09375 26.058594 L 17.148438 31.03125 L 13.820312 31.03125 L 17.238281 23.863281 L 13.886719 16.8125 L 17.179688 16.8125 Z M 25.070312 25.425781 C 25.070312 23.695312 25.363281 22.402344 25.949219 21.550781 C 26.535156 20.695312 27.386719 20.269531 28.507812 20.269531 C 29.320312 20.269531 29.996094 20.621094 30.539062 21.324219 L 30.539062 16.03125 L 33.320312 16.03125 L 33.320312 31.03125 L 30.8125 31.03125 L 30.683594 29.957031 C 30.117188 30.804688 29.386719 31.226562 28.496094 31.226562 C 27.390625 31.226562 26.546875 30.804688 25.960938 29.957031 C 25.378906 29.109375 25.082031 27.867188 25.066406 26.226562 L 25.066406 25.425781 Z M 27.84375 26.117188 C 27.84375 27.160156 27.953125 27.890625 28.175781 28.300781 C 28.398438 28.714844 28.769531 28.921875 29.296875 28.921875 C 29.84375 28.921875 30.257812 28.679688 30.539062 28.191406 L 30.539062 23.367188 C 30.265625 22.84375 29.855469 22.585938 29.308594 22.585938 C 28.800781 22.585938 28.429688 22.789062 28.195312 23.199219 C 27.960938 23.609375 27.84375 24.339844 27.84375 25.386719 Z M 27.84375 26.117188 "/>
</g>
</svg>
