<?xml version="1.0" encoding="UTF-8"?>
<svg xmlns="http://www.w3.org/2000/svg" xmlns:xlink="http://www.w3.org/1999/xlink" viewBox="0 0 48 48" width="48px" height="48px">
<g id="surface75487695">
<path style=" stroke:none;fill-rule:nonzero;fill:rgb(33.333334%,33.333334%,33.333334%);fill-opacity:1;" d="M 26 17 L 18 17 C 14.132812 17 11 13.867188 11 10 C 11 6.132812 14.132812 3 18 3 L 26 3 Z M 26 17 "/>
<path style=" stroke:none;fill-rule:nonzero;fill:rgb(33.333334%,33.333334%,33.333334%);fill-opacity:1;" d="M 25 31 L 18 31 C 14.132812 31 11 27.867188 11 24 C 11 20.132812 14.132812 17 18 17 L 25 17 Z M 25 31 "/>
<path style=" stroke:none;fill-rule:nonzero;fill:rgb(33.333334%,33.333334%,33.333334%);fill-opacity:1;" d="M 18 45 C 14.132812 45 11 41.867188 11 38 C 11 34.132812 14.132812 31 18 31 L 25 31 L 25 38 C 25 41.867188 21.867188 45 18 45 Z M 18 45 "/>
<path style=" stroke:none;fill-rule:nonzero;fill:rgb(33.333334%,33.333334%,33.333334%);fill-opacity:1;" d="M 32 17 L 25 17 L 25 3 L 32 3 C 35.867188 3 39 6.132812 39 10 C 39 13.867188 35.867188 17 32 17 Z M 32 17 "/>
<path style=" stroke:none;fill-rule:nonzero;fill:rgb(33.333334%,33.333334%,33.333334%);fill-opacity:1;" d="M 39 24 C 39 27.867188 35.867188 31 32 31 C 28.132812 31 25 27.867188 25 24 C 25 20.132812 28.132812 17 32 17 C 35.867188 17 39 20.132812 39 24 Z M 39 24 "/>
</g>
</svg>
